<svg width="26" height="26" viewBox="0 0 26 26" fill="none" xmlns="http://www.w3.org/2000/svg">
<path d="M20.5833 19.4999V10.6474C20.5833 10.0728 20.3443 9.53485 19.8997 9.17069C18.7317 8.21372 16.3549 6.31168 14.4635 4.62106C13.6193 3.86654 12.3362 3.81887 11.4766 4.55568L6.17328 9.1014C5.69305 9.51303 5.41666 10.114 5.41666 10.7465V19.4999C5.41666 20.6966 6.38671 21.6666 7.58332 21.6666H8.12499C9.32161 21.6666 10.2917 20.6966 10.2917 19.4999V17.3333C10.2917 16.1366 11.2617 15.1666 12.4583 15.1666H13.5417C14.7383 15.1666 15.7083 16.1366 15.7083 17.3333V19.4999C15.7083 20.6966 16.6783 21.6666 17.875 21.6666H18.4167C19.6133 21.6666 20.5833 20.6966 20.5833 19.4999Z" stroke="#FFF5E8" stroke-width="2" stroke-linecap="round"/>
</svg>
