<svg width="68" height="68" viewBox="0 0 68 68" fill="none" xmlns="http://www.w3.org/2000/svg">
<circle cx="34" cy="34" r="34" fill="#0263B2"/>
<path fill-rule="evenodd" clip-rule="evenodd" d="M49.4422 43.2502C50.9191 41.4186 52.033 39.3102 52.7159 37.0395C53.5786 34.1708 53.7266 31.1318 53.1468 28.1917C52.567 25.2515 51.2773 22.501 49.392 20.1837C47.5067 17.8664 45.0839 16.0539 42.3382 14.9067C39.5925 13.7595 36.6088 13.313 33.6512 13.6069C30.6936 13.9007 27.8536 14.9257 25.3825 16.5912C22.9115 18.2567 20.8858 20.5111 19.4849 23.1549C18.376 25.2476 17.6856 27.533 17.446 29.8816C17.4378 29.9621 17.4603 30.0313 17.5237 30.0974C17.5936 30.1701 17.7086 30.2289 17.853 30.2289L34.5908 30.2289C35.5228 30.2289 36.4165 30.6023 37.0755 31.267L48.9109 43.2055C49.013 43.3085 49.1356 43.349 49.236 43.3474C49.3271 43.3459 49.3916 43.313 49.4422 43.2502ZM50.6105 44.2088C49.9108 45.0766 48.6302 45.0706 47.8461 44.2797L36.0106 32.3412C35.6341 31.9613 35.1234 31.7479 34.5908 31.7479L17.853 31.7479C16.744 31.7479 15.8344 30.8388 15.9479 29.726C16.2076 27.1817 16.9554 24.7059 18.1567 22.4388C19.6744 19.5747 21.8689 17.1324 24.5459 15.3281C27.2228 13.5239 30.2996 12.4134 33.5036 12.0951C36.7076 11.7768 39.94 12.2604 42.9145 13.5032C45.889 14.746 48.5137 16.7096 50.5561 19.22C52.5986 21.7304 53.9957 24.7101 54.6238 27.8953C55.2519 31.0805 55.0916 34.3727 54.157 37.4805C53.4173 39.9403 52.2105 42.2245 50.6105 44.2088Z" fill="white"/>
<path fill-rule="evenodd" clip-rule="evenodd" d="M13.5076 36.7306C13.6866 38.4841 14.117 40.2055 14.7883 41.8401C15.6965 44.0518 17.0276 46.0613 18.7057 47.754C20.3838 49.4467 22.376 50.7894 24.5685 51.7055C26.1891 52.3826 27.8956 52.8168 29.6339 52.9973C29.7137 53.0056 29.7824 52.9829 29.8478 52.9189C29.9199 52.8485 29.9782 52.7324 29.9782 52.5868L29.9782 36.8897C29.9782 36.61 29.7535 36.3833 29.4762 36.3833L13.9147 36.3833C13.7703 36.3833 13.6552 36.4421 13.5854 36.5148C13.522 36.5809 13.4994 36.6501 13.5076 36.7306ZM12.0096 36.8861C11.8961 35.7734 12.8057 34.8642 13.9147 34.8642H29.4762C30.5852 34.8642 31.4842 35.7711 31.4842 36.8897L31.4842 52.5868C31.4842 53.7054 30.5829 54.6229 29.4797 54.5084C27.5965 54.3129 25.7478 53.8425 23.9922 53.109C21.617 52.1165 19.4588 50.6619 17.6408 48.8281C15.8229 46.9944 14.3808 44.8174 13.397 42.4214C12.6698 40.6506 12.2034 38.7857 12.0096 36.8861Z" fill="white"/>
<path fill-rule="evenodd" clip-rule="evenodd" d="M36.9904 54.4422C39.0468 54.2687 41.0624 53.7409 42.9484 52.8781C44.8345 52.0153 46.556 50.8335 48.0402 49.3873L36.9904 39.6263V54.4422ZM36.488 55.9987C35.9343 56.0274 35.4845 55.5713 35.4845 55.012V38.5098C35.4845 37.6395 36.5008 37.1746 37.1499 37.7479L49.4573 48.6199C49.8744 48.9884 49.9182 49.6302 49.532 50.0316C47.8269 51.8034 45.8053 53.2392 43.5704 54.2616C41.3356 55.284 38.9328 55.8721 36.488 55.9987Z" fill="white"/>
<path fill-rule="evenodd" clip-rule="evenodd" d="M21.8689 40.8624C22.1462 40.8624 22.3709 40.6357 22.3709 40.356C22.3709 40.0764 22.1462 39.8497 21.8689 39.8497C21.5917 39.8497 21.3669 40.0764 21.3669 40.356C21.3669 40.6357 21.5917 40.8624 21.8689 40.8624ZM21.8689 42.3815C22.9779 42.3815 23.8769 41.4746 23.8769 40.356C23.8769 39.2374 22.9779 38.3306 21.8689 38.3306C20.76 38.3306 19.861 39.2374 19.861 40.356C19.861 41.4746 20.76 42.3815 21.8689 42.3815Z" fill="white"/>
<path fill-rule="evenodd" clip-rule="evenodd" d="M25.8848 45.926C26.162 45.926 26.3868 45.6993 26.3868 45.4196C26.3868 45.1399 26.162 44.9132 25.8848 44.9132C25.6076 44.9132 25.3828 45.1399 25.3828 45.4196C25.3828 45.6993 25.6076 45.926 25.8848 45.926ZM25.8848 47.445C26.9938 47.445 27.8928 46.5382 27.8928 45.4196C27.8928 44.301 26.9938 43.3942 25.8848 43.3942C24.7758 43.3942 23.8769 44.301 23.8769 45.4196C23.8769 46.5382 24.7758 47.445 25.8848 47.445Z" fill="white"/>
<path fill-rule="evenodd" clip-rule="evenodd" d="M26.9192 39.819C27.2133 40.1156 27.2133 40.5965 26.9192 40.8931L21.8994 45.9567C21.6053 46.2533 21.1285 46.2533 20.8345 45.9567C20.5404 45.6601 20.5404 45.1791 20.8345 44.8825L25.8544 39.819C26.1484 39.5223 26.6252 39.5223 26.9192 39.819Z" fill="white"/>
<path fill-rule="evenodd" clip-rule="evenodd" d="M25.1318 24.6589C25.1318 24.2395 25.4689 23.8994 25.8848 23.8994H32.4106C32.8265 23.8994 33.1636 24.2395 33.1636 24.6589C33.1636 25.0784 32.8265 25.4185 32.4106 25.4185H25.8848C25.4689 25.4185 25.1318 25.0784 25.1318 24.6589ZM25.1318 26.6844C25.1318 26.2649 25.4689 25.9248 25.8848 25.9248H33.4146C33.8305 25.9248 34.1676 26.2649 34.1676 26.6844C34.1676 27.1039 33.8305 27.4439 33.4146 27.4439H25.8848C25.4689 27.4439 25.1318 27.1039 25.1318 26.6844Z" fill="white"/>
<path d="M26.5876 21.874C26.5876 22.2935 26.2505 22.6335 25.8346 22.6335C25.4188 22.6335 25.0816 22.2935 25.0816 21.874C25.0816 21.4545 25.4188 21.1144 25.8346 21.1144C26.2505 21.1144 26.5876 21.4545 26.5876 21.874Z" fill="white"/>
<path d="M28.3947 21.874C28.3947 22.2935 28.0576 22.6335 27.6418 22.6335C27.2259 22.6335 26.8888 22.2935 26.8888 21.874C26.8888 21.4545 27.2259 21.1144 27.6418 21.1144C28.0576 21.1144 28.3947 21.4545 28.3947 21.874Z" fill="white"/>
</svg>
