<svg width="68" height="68" viewBox="0 0 68 68" fill="none" xmlns="http://www.w3.org/2000/svg">
<circle cx="34" cy="34" r="34" fill="#0263B2"/>
<path fill-rule="evenodd" clip-rule="evenodd" d="M21.35 14.7458C21.35 15.1576 21.7026 15.4915 22.1375 15.4915H23.45C24.3198 15.4915 25.025 16.1593 25.025 16.9831V22.9492C25.025 23.7729 24.3198 24.4407 23.45 24.4407H17.15C16.2802 24.4407 15.575 23.7729 15.575 22.9492V16.9831C15.575 16.1593 16.2802 15.4915 17.15 15.4915H18.4625C18.8974 15.4915 19.25 15.1576 19.25 14.7458C19.25 14.3339 18.8974 14 18.4625 14H17.15C15.4103 14 14 15.3356 14 16.9831V22.9492C14 24.5966 15.4103 25.9322 17.15 25.9322H23.45C25.1897 25.9322 26.6 24.5966 26.6 22.9492V16.9831C26.6 15.3356 25.1897 14 23.45 14H22.1375C21.7026 14 21.35 14.3339 21.35 14.7458Z" fill="white"/>
<path fill-rule="evenodd" clip-rule="evenodd" d="M38.15 15.4915H31.85C30.9802 15.4915 30.275 16.1593 30.275 16.9831V22.9492C30.275 23.7729 30.9802 24.4407 31.85 24.4407H38.15C39.0198 24.4407 39.725 23.7729 39.725 22.9492V16.9831C39.725 16.1593 39.0198 15.4915 38.15 15.4915ZM31.85 14C30.1103 14 28.7 15.3356 28.7 16.9831V22.9492C28.7 24.5966 30.1103 25.9322 31.85 25.9322H38.15C39.8897 25.9322 41.3 24.5966 41.3 22.9492V16.9831C41.3 15.3356 39.8897 14 38.15 14H31.85Z" fill="white"/>
<path fill-rule="evenodd" clip-rule="evenodd" d="M46.55 15.4915H52.85C53.7198 15.4915 54.425 16.1593 54.425 16.9831V22.9492C54.425 23.7729 53.7198 24.4407 52.85 24.4407H51.5375C51.1026 24.4407 50.75 24.7746 50.75 25.1864C50.75 25.5983 51.1026 25.9322 51.5375 25.9322H52.85C54.5897 25.9322 56 24.5966 56 22.9492V16.9831C56 15.3356 54.5897 14 52.85 14H46.55C44.8103 14 43.4 15.3356 43.4 16.9831V22.9492C43.4 24.5966 44.8103 25.9322 46.55 25.9322H47.8625C48.2974 25.9322 48.65 25.5983 48.65 25.1864C48.65 24.7746 48.2974 24.4407 47.8625 24.4407H46.55C45.6802 24.4407 44.975 23.7729 44.975 22.9492V16.9831C44.975 16.1593 45.6802 15.4915 46.55 15.4915Z" fill="white"/>
<path fill-rule="evenodd" clip-rule="evenodd" d="M23.4818 17.9472C23.7894 18.2385 23.7894 18.7107 23.4818 19.0019L19.775 22.5123L17.6432 20.4934C17.3356 20.2022 17.3356 19.73 17.6432 19.4388C17.9507 19.1475 18.4493 19.1475 18.7568 19.4388L19.775 20.403L22.3682 17.9472C22.6757 17.656 23.1743 17.656 23.4818 17.9472Z" fill="white"/>
<path fill-rule="evenodd" clip-rule="evenodd" d="M28.4375 29.661C28.4375 28.2881 29.6128 27.1751 31.0625 27.1751C32.5122 27.1751 33.6875 28.2881 33.6875 29.661V33.1412H34.475C35.7967 33.1412 36.911 33.9822 37.2538 35.1299H38.15C39.4717 35.1299 40.586 35.9709 40.9288 37.1186H41.825C43.4197 37.1186 44.7125 38.3429 44.7125 39.8531V49.843L44.1875 53.8204V58H27.9125V54.0226L24.7625 50.0452V46.8136C24.7625 46.4017 25.1151 46.0678 25.55 46.0678C25.9849 46.0678 26.3375 46.4017 26.3375 46.8136V49.548L29.4875 53.5254V56.5085H42.6125V53.7276L43.1375 49.7502V39.8531C43.1375 39.1667 42.5499 38.6102 41.825 38.6102H41.0375V43.0847C41.0375 43.4966 40.6849 43.8305 40.25 43.8305C39.8151 43.8305 39.4625 43.4966 39.4625 43.0847V37.8644C39.4625 37.178 38.8749 36.6215 38.15 36.6215H37.3625V43.0847C37.3625 43.4966 37.0099 43.8305 36.575 43.8305C36.1401 43.8305 35.7875 43.4966 35.7875 43.0847V35.8757C35.7875 35.1893 35.1999 34.6328 34.475 34.6328H33.6875V43.0847C33.6875 43.4966 33.3349 43.8305 32.9 43.8305C32.4651 43.8305 32.1125 43.4966 32.1125 43.0847V29.661C32.1125 29.1119 31.6424 28.6667 31.0625 28.6667C30.4826 28.6667 30.0125 29.1119 30.0125 29.661V44.8249C30.0125 45.2367 29.6599 45.5706 29.225 45.5706C28.7901 45.5706 28.4375 45.2367 28.4375 44.8249V39.6045H27.65C26.9251 39.6045 26.3375 40.161 26.3375 40.8475V43.8305C26.3375 44.2424 25.9849 44.5763 25.55 44.5763C25.1151 44.5763 24.7625 44.2424 24.7625 43.8305V40.8475C24.7625 39.3373 26.0553 38.113 27.65 38.113H28.4375V29.661Z" fill="white"/>
</svg>
