<svg width="68" height="68" viewBox="0 0 68 68" fill="none" xmlns="http://www.w3.org/2000/svg">
<circle cx="34" cy="34" r="34" fill="#0263B2"/>
<path d="M48.8079 47.8333C48.8079 48.3082 48.4229 48.6933 47.9479 48.6933C47.473 48.6933 47.0879 48.3082 47.0879 47.8333C47.0879 47.3583 47.473 46.9733 47.9479 46.9733C48.4229 46.9733 48.8079 47.3583 48.8079 47.8333Z" fill="white"/>
<path fill-rule="evenodd" clip-rule="evenodd" d="M52.6718 18.3414C52.0578 17.7273 51.0621 17.7273 50.4481 18.3414L49.5712 19.2183L48.3527 20.4368L46.7031 22.0864L45.4807 23.3088L33.7693 35.0202C33.1456 35.6439 32.1344 35.6439 31.5107 35.0202L28.0185 31.5281C27.4045 30.914 26.4088 30.914 25.7948 31.5281C25.1807 32.1421 25.1807 33.1378 25.7948 33.7518L31.1312 39.0882C31.9645 39.9215 33.3155 39.9215 34.1488 39.0882L47.2344 26.0026L48.5053 24.7317L50.253 22.984L51.498 21.739L52.6718 20.5652C53.2859 19.9511 53.2859 18.9555 52.6718 18.3414ZM49.2318 17.1252C50.5176 15.8394 52.6023 15.8394 53.8881 17.1252C55.1738 18.411 55.1738 20.4956 53.8881 21.7814L35.365 40.3044C33.86 41.8094 31.4199 41.8094 29.915 40.3045L24.5785 34.968C23.2928 33.6823 23.2928 31.5976 24.5785 30.3118C25.8643 29.0261 27.949 29.0261 29.2348 30.3118L32.64 33.7171L49.2318 17.1252Z" fill="white"/>
<path fill-rule="evenodd" clip-rule="evenodd" d="M24.6619 48.4664C28.498 50.617 33.0035 51.2432 37.2807 50.2203C41.5578 49.1974 45.2925 46.6004 47.7405 42.9469C50.1884 39.2934 51.1699 34.8516 50.4892 30.5069C50.1689 28.4625 49.4918 26.5103 48.5053 24.7317L47.2344 26.0026C47.9979 27.487 48.5272 29.0957 48.7899 30.7731C49.4036 34.6905 48.5187 38.6953 46.3116 41.9895C44.1044 45.2836 40.7371 47.6252 36.8806 48.5475C33.0242 49.4698 28.9618 48.9051 25.503 46.9661C22.0443 45.027 19.4432 41.8559 18.2181 38.0847C17.0817 34.5868 17.2066 30.8109 18.5542 27.4082C18.7291 26.9666 18.5428 26.4564 18.1114 26.2578C17.68 26.0591 17.1671 26.247 16.9898 26.6877C15.4626 30.4843 15.3122 34.7067 16.5822 38.6161C17.941 42.7987 20.8259 46.3157 24.6619 48.4664ZM45.4807 23.3088C44.7526 22.407 43.9222 21.5819 43.0002 20.8519C39.8914 18.3906 35.9693 17.191 32.0155 17.4922C30.4482 17.6116 28.9216 17.9634 27.4814 18.5254C27.0389 18.6981 26.5298 18.5092 26.3333 18.0769C26.1368 17.6445 26.3273 17.1325 26.7688 16.9575C28.3916 16.3141 30.1149 15.912 31.8849 15.7772C36.27 15.4431 40.6199 16.7735 44.0679 19.5034C45.0419 20.2746 45.9238 21.1415 46.7031 22.0864L45.4807 23.3088Z" fill="white"/>
<path fill-rule="evenodd" clip-rule="evenodd" d="M47.4145 17.1099C43.2925 13.6105 38.0033 11.7927 32.6009 12.0188C27.1986 12.2449 22.0797 14.4983 18.2645 18.3299C14.4494 22.1616 12.218 27.29 12.0152 32.6933C11.8123 38.0966 13.6528 43.378 17.1699 47.4849C20.687 51.5918 25.6225 54.2227 30.9927 54.8532C36.0776 55.4503 41.1988 54.2124 45.4408 51.3792C45.8358 51.1154 45.9199 50.5759 45.6405 50.1918C45.3611 49.8077 44.8242 49.7245 44.4283 49.9869C40.5369 52.5665 35.8486 53.6916 31.1933 53.145C26.2527 52.5649 21.7121 50.1444 18.4763 46.3661C15.2406 42.5877 13.5473 37.7289 13.7339 32.7579C13.9206 27.7868 15.9734 23.0686 19.4834 19.5435C22.9933 16.0185 27.7027 13.9453 32.6729 13.7373C37.643 13.5293 42.5091 15.2017 46.3014 18.4211C47.0372 19.0459 47.7222 19.72 48.3527 20.4368L49.5712 19.2183C48.9061 18.4699 48.1861 17.7649 47.4145 17.1099ZM51.4038 21.5961C51.4354 21.6436 51.4668 21.6912 51.498 21.739L50.253 22.984C51.7864 25.4271 52.7803 28.197 53.1349 31.1088C53.7015 35.7617 52.5966 40.4548 50.0338 44.3573C49.773 44.7543 49.8585 45.2909 50.2438 45.5686C50.6291 45.8463 51.1683 45.7599 51.4304 45.3638C54.2453 41.1096 55.4612 35.9832 54.8423 30.9009C54.4337 27.5462 53.2446 24.3648 51.4038 21.5961Z" fill="white"/>
</svg>
