<svg width="121" height="38" viewBox="0 0 121 38" fill="none" xmlns="http://www.w3.org/2000/svg">
<path d="M14.845 2.55745C14.1983 3.93906 12.9636 6.70229 12.0524 8.64242L10.4356 12.1993L5.67343 12.2875C1.23463 12.3463 0.911276 12.4051 0.911276 12.9048C0.911276 14.3746 1.02886 14.404 5.20309 14.404C9.73007 14.404 9.64188 14.3158 8.28967 16.9909C7.81933 17.9022 7.11383 19.4601 6.70228 20.4302C6.29074 21.4003 5.49705 23.1934 4.93853 24.3987C3.96846 26.5446 2.35168 30.1309 0.793692 33.629L0 35.3928L1.02886 36.4216C1.61678 36.9801 2.11651 37.3917 2.1753 37.3035C2.23409 37.2447 4.17423 32.9529 6.46712 27.7792C8.7894 22.6055 11.0823 17.4906 11.582 16.3736L12.4933 14.404H14.3452C15.3741 14.404 16.1972 14.4922 16.1972 14.6098C16.1972 14.698 15.8738 15.3447 15.4917 15.9914C14.3746 17.9022 13.3164 21.2239 12.9048 23.9577C12.4345 27.3383 12.9048 31.2185 14.2277 34.5109C15.1389 36.8332 15.1977 36.892 16.2266 36.9801C17.1085 37.0683 17.5788 36.8038 19.4601 35.334C22.0176 33.335 24.2811 31.101 25.9567 28.955C27.4558 27.0443 37.1271 17.3142 37.3917 17.4024C37.5093 17.4612 36.3922 20.195 34.893 23.5168C31.0716 31.924 31.2185 31.4537 32.218 32.5708C32.6883 33.0999 33.1293 33.5114 33.2469 33.5114C33.4232 33.5114 36.2453 27.3089 37.0389 25.1924C37.3329 24.3987 37.3917 24.3987 39.8904 24.3987C41.8011 24.3987 42.389 24.4869 42.2714 24.7808C42.1832 24.9572 41.4777 26.5446 40.7134 28.2495L39.3318 31.3949L40.1843 32.6001C40.6546 33.2469 41.0956 33.8054 41.1838 33.8054C41.272 33.8054 43.4473 31.8359 46.0341 29.396C48.621 26.9855 50.7669 25.0748 50.8257 25.1042C50.8844 25.163 50.9726 25.9861 51.0608 26.9267C51.2666 30.0721 51.7663 31.5125 53.1773 32.9823C54.265 34.1581 55.3232 34.0405 57.5573 32.5708C59.9384 31.0422 61.7316 28.9844 63.0838 26.3388C64.3184 23.8695 64.7887 21.5767 64.6418 18.6077C64.5536 16.6381 64.6124 16.4324 65.1415 16.3148C65.9058 16.1384 70.6092 15.2859 70.7561 15.2859C71.0501 15.2859 70.8149 15.815 70.1682 16.4911C68.5808 18.1961 67.111 22.047 66.8465 25.163C66.6407 27.6322 67.0816 29.7193 68.2869 32.1004C69.0512 33.6584 69.1982 33.8054 70.08 33.8054C71.1971 33.8054 73.4018 32.365 76.5471 29.5724C77.6348 28.6317 78.6049 27.9262 78.6931 28.0144C78.7812 28.1026 78.5167 28.8375 78.0757 29.6899C77.2526 31.3067 77.282 31.7477 78.3403 33.0411L79.0458 33.8642L79.8395 32.1592C80.9859 29.7487 83.0143 26.3976 84.925 23.8107C86.6594 21.4591 91.9212 15.962 92.1564 16.1972C92.3034 16.3442 89.8047 24.4281 88.2173 28.955L87.3943 31.3067L88.5113 32.6295L89.599 33.923L90.2457 32.1592C91.1569 29.7781 93.7438 24.9572 95.5076 22.4879C97.2125 20.1069 101.005 15.9326 101.269 16.1972C101.446 16.3736 101.181 17.226 98.5059 25.7215C96.5364 31.9828 96.5658 31.4537 97.8592 32.7177L98.9469 33.776L102.68 30.1015C104.738 28.0732 106.56 26.4858 106.737 26.6034C106.884 26.6916 107.031 27.2501 107.031 27.7792C107.031 29.2196 107.854 31.4243 108.853 32.7177C109.97 34.1287 111.117 34.1875 112.939 32.8941C117.114 29.9251 119.465 24.6632 118.525 20.489C118.113 18.6077 116.937 16.7557 116.144 16.7557C115.85 16.7557 114.703 17.226 113.615 17.7846C112.528 18.3431 111.587 18.7546 111.499 18.6958C111.293 18.4607 112.616 15.8738 114.292 13.2576C115.791 10.9353 119.024 7.37839 120.494 6.43772C121.082 6.05557 121.111 5.93799 120.817 4.90913C120.553 3.90966 120.435 3.79208 119.877 3.99785C119.524 4.14483 99.2996 4.29181 74.9598 4.32121L30.6894 4.4094L29.8957 3.38054C29.4548 2.82201 28.8669 2.35168 28.5435 2.35168C28.2495 2.35168 27.3383 3.11597 26.5152 4.08604C24.6926 6.17316 24.869 6.70228 27.3677 6.81987C28.8375 6.90806 29.0138 6.99625 29.4254 7.78994C30.1015 9.11276 30.0427 15.5211 29.3372 17.5788C28.4553 20.195 27.1325 22.8701 25.5451 25.2218C24.1047 27.4265 19.9011 31.8359 18.0197 33.1881L17.0791 33.8642L16.4324 32.4238C15.5505 30.4542 15.3153 24.5456 16.0502 21.7824C16.7263 19.1368 18.3137 16.1384 19.8717 14.4922C21.2239 13.1106 21.5767 11.9054 20.783 11.582C20.5478 11.4938 19.6659 11.6408 18.8134 11.876C16.8145 12.4639 14.1689 12.4933 13.9631 11.9348C13.8749 11.6996 14.1983 10.6413 14.698 9.5537C15.1977 8.49544 15.6093 7.55477 15.6093 7.49598C15.6093 7.43719 16.1972 6.14376 16.9321 4.61517C17.667 3.05718 18.2549 1.58738 18.2549 1.32282C18.2549 0.94067 16.6969 0 16.109 0C16.0208 0 15.4623 1.14644 14.845 2.55745ZM115.85 6.96685C115.85 7.08443 115.32 7.78994 114.674 8.58363C111.558 12.2581 108.412 18.0491 107.589 21.606C107.295 22.9583 107.001 23.311 104.003 25.9567C102.21 27.5734 100.681 28.7493 100.652 28.6023C100.593 28.4553 101.005 26.7503 101.593 24.8102C102.18 22.8995 103.151 19.5189 103.797 17.3436C104.415 15.1683 105.002 13.1694 105.12 12.9048C105.267 12.5521 105.061 12.3169 104.356 12.0818C103.827 11.9054 103.239 11.7584 103.033 11.7584C102.122 11.7584 96.2425 17.7552 94.3611 20.5772C93.3616 22.0764 93.5086 20.8124 94.802 16.7557C95.5369 14.4628 96.1543 12.5521 96.1543 12.5227C96.1543 12.4639 95.6251 12.2581 94.9784 12.0524C93.8908 11.6996 93.7732 11.6996 92.7737 12.4639C92.2152 12.9048 90.3927 14.5804 88.7465 16.1678C87.1003 17.7846 85.6893 19.0486 85.6305 18.9898C85.5717 18.9016 86.1302 17.4906 86.8651 15.8444C87.6 14.1983 88.2173 12.7579 88.2173 12.6403C88.2173 12.5521 87.747 12.2875 87.1591 12.0818C85.8951 11.6408 85.9833 11.5526 84.7192 14.551C82.1912 20.5772 81.4563 21.8118 79.1634 24.1929C76.8117 26.6034 71.4322 30.8658 70.7561 30.8658C70.1388 30.8658 69.933 30.0721 69.7861 27.0443C69.5215 22.4879 70.6679 19.225 73.4606 16.4911C74.6952 15.2565 74.8128 15.2271 76.1356 15.3741C76.8999 15.4623 77.6936 15.5799 77.9288 15.6387C78.2815 15.6975 78.3403 15.4035 78.2815 14.1101C78.2227 13.2282 78.1345 12.4345 78.0463 12.3757C77.9582 12.2581 73.8133 12.846 67.552 13.8455L63.7893 14.4628L62.7016 13.4046C62.1137 12.8167 61.4376 12.3757 61.2024 12.4051C60.8203 12.4933 59.1153 16.109 59.1153 16.8145C59.1153 16.9615 59.7326 17.0497 60.5263 16.9909L61.9079 16.9027L61.9961 18.6077C62.1725 22.0764 60.8497 25.7215 58.4098 28.4259C56.94 30.0721 55.1763 31.3067 54.7353 31.0422C54.1768 30.6894 53.7359 27.8086 53.9122 25.163C54.0592 22.194 54.6765 20.2244 56.3227 17.52C57.2928 15.9032 57.3222 15.7562 56.8518 15.4035C55.8524 14.6392 55.2938 14.6392 54.7059 15.3447C54.0886 16.0502 52.0603 19.9893 52.0603 20.4596C52.0603 20.7242 49.0619 23.7226 45.4756 27.0443C43.9176 28.4847 43.7706 28.5729 43.947 27.8674C44.0352 27.4265 44.5055 26.2506 44.9759 25.2218C45.4462 24.1929 46.6514 21.5179 47.6215 19.2544C48.621 16.9909 49.7086 14.5804 50.0026 13.8749C50.3259 13.1988 50.5905 12.5815 50.5905 12.5227C50.5905 12.3757 48.2388 11.6702 48.1506 11.7878C48.0918 11.8466 47.5333 13.0812 46.8572 14.551C46.2105 15.9914 45.1522 18.2843 44.5643 19.6071L43.4473 22.047H41.1838C39.9491 22.047 38.8615 21.9588 38.7733 21.8706C38.6557 21.7824 38.9791 20.8418 39.4788 19.7541C41.3014 15.7269 42.6536 12.6109 42.6536 12.4639C42.6536 12.4051 42.1244 12.1993 41.5071 12.023C40.0961 11.6114 40.0667 11.6408 35.0988 16.5499C33.2763 18.3431 31.7183 19.7247 31.6301 19.6365C31.5419 19.5483 31.7183 18.5195 32.0416 17.373C32.9235 14.1983 33.0705 11.6702 32.5414 9.17155C32.2768 7.99571 32.071 6.96685 32.071 6.87866C32.071 6.81987 50.9138 6.76108 73.9603 6.76108C97.0068 6.76108 115.85 6.84926 115.85 6.96685ZM115.879 20.489C116.349 21.6942 115.997 24.6632 115.173 26.5152C114.439 28.1907 111.646 31.2773 111.058 31.0716C110.235 30.807 109.823 29.2196 109.823 26.4564C109.823 23.8989 109.882 23.5756 110.588 22.6937C111.587 21.4003 114.027 19.6953 114.88 19.6953C115.35 19.6953 115.673 19.9305 115.879 20.489Z" fill="#D83223"/>
</svg>
