<svg width="197" height="23" viewBox="0 0 197 23" fill="none" xmlns="http://www.w3.org/2000/svg">
<path d="M12.552 0.959999C14.76 0.959999 16.72 1.416 18.432 2.328C20.16 3.224 21.504 4.464 22.464 6.048C23.424 7.632 23.904 9.424 23.904 11.424C23.904 12.832 23.696 14.048 23.28 15.072C22.88 16.08 22.312 16.848 21.576 17.376C20.84 17.904 19.976 18.168 18.984 18.168C18.168 18.168 17.48 17.992 16.92 17.64C16.36 17.288 15.952 16.768 15.696 16.08C14.832 17.472 13.464 18.168 11.592 18.168C10.568 18.168 9.632 17.912 8.784 17.4C7.936 16.888 7.264 16.176 6.768 15.264C6.288 14.336 6.048 13.28 6.048 12.096C6.048 10.928 6.288 9.888 6.768 8.976C7.264 8.048 7.928 7.328 8.76 6.816C9.608 6.304 10.552 6.048 11.592 6.048C13.176 6.048 14.408 6.576 15.288 7.632V6.216H18.552V13.992C18.552 15.016 18.936 15.528 19.704 15.528C20.264 15.528 20.696 15.192 21 14.52C21.32 13.848 21.48 12.832 21.48 11.472C21.48 9.856 21.104 8.432 20.352 7.2C19.616 5.952 18.568 4.984 17.208 4.296C15.864 3.592 14.312 3.24 12.552 3.24C10.792 3.24 9.232 3.616 7.872 4.368C6.528 5.104 5.48 6.128 4.728 7.44C3.992 8.752 3.624 10.24 3.624 11.904C3.624 13.6 3.992 15.112 4.728 16.44C5.464 17.752 6.496 18.776 7.824 19.512C9.168 20.264 10.712 20.64 12.456 20.64C14.184 20.64 15.76 20.288 17.184 19.584L17.952 21.792C17.232 22.16 16.376 22.44 15.384 22.632C14.408 22.84 13.432 22.944 12.456 22.944C10.184 22.944 8.176 22.464 6.432 21.504C4.688 20.56 3.336 19.248 2.376 17.568C1.416 15.888 0.936 14 0.936 11.904C0.936 9.824 1.416 7.952 2.376 6.288C3.352 4.624 4.72 3.32 6.48 2.376C8.24 1.432 10.264 0.959999 12.552 0.959999ZM12.336 15.408C13.216 15.408 13.936 15.12 14.496 14.544C15.056 13.952 15.336 13.136 15.336 12.096C15.336 11.072 15.056 10.272 14.496 9.696C13.936 9.12 13.216 8.832 12.336 8.832C11.44 8.832 10.72 9.128 10.176 9.72C9.632 10.296 9.36 11.088 9.36 12.096C9.36 13.12 9.632 13.928 10.176 14.52C10.72 15.112 11.44 15.408 12.336 15.408ZM31.7798 4.896C33.7798 4.896 35.3158 5.376 36.3878 6.336C37.4598 7.28 37.9958 8.712 37.9958 10.632V18H34.4918V16.392C33.7878 17.592 32.4758 18.192 30.5558 18.192C29.5638 18.192 28.6998 18.024 27.9638 17.688C27.2438 17.352 26.6918 16.888 26.3078 16.296C25.9238 15.704 25.7318 15.032 25.7318 14.28C25.7318 13.08 26.1798 12.136 27.0758 11.448C27.9878 10.76 29.3878 10.416 31.2758 10.416H34.2518C34.2518 9.6 34.0038 8.976 33.5078 8.544C33.0118 8.096 32.2678 7.872 31.2758 7.872C30.5878 7.872 29.9078 7.984 29.2358 8.208C28.5798 8.416 28.0198 8.704 27.5558 9.072L26.2118 6.456C26.9158 5.96 27.7558 5.576 28.7318 5.304C29.7238 5.032 30.7398 4.896 31.7798 4.896ZM31.4918 15.672C32.1318 15.672 32.6998 15.528 33.1958 15.24C33.6918 14.936 34.0438 14.496 34.2518 13.92V12.6H31.6838C30.1478 12.6 29.3798 13.104 29.3798 14.112C29.3798 14.592 29.5638 14.976 29.9318 15.264C30.3158 15.536 30.8358 15.672 31.4918 15.672ZM54.6769 0.191999V18H51.1009V16.512C50.1729 17.632 48.8289 18.192 47.0689 18.192C45.8529 18.192 44.7489 17.92 43.7569 17.376C42.7809 16.832 42.0129 16.056 41.4529 15.048C40.8929 14.04 40.6129 12.872 40.6129 11.544C40.6129 10.216 40.8929 9.048 41.4529 8.04C42.0129 7.032 42.7809 6.256 43.7569 5.712C44.7489 5.168 45.8529 4.896 47.0689 4.896C48.7169 4.896 50.0049 5.416 50.9329 6.456V0.191999H54.6769ZM47.7169 15.12C48.6609 15.12 49.4449 14.8 50.0689 14.16C50.6929 13.504 51.0049 12.632 51.0049 11.544C51.0049 10.456 50.6929 9.592 50.0689 8.952C49.4449 8.296 48.6609 7.968 47.7169 7.968C46.7569 7.968 45.9649 8.296 45.3409 8.952C44.7169 9.592 44.4049 10.456 44.4049 11.544C44.4049 12.632 44.7169 13.504 45.3409 14.16C45.9649 14.8 46.7569 15.12 47.7169 15.12ZM70.9581 5.088L65.5101 18H61.6461L56.2221 5.088H60.0861L63.6621 13.872L67.3581 5.088H70.9581ZM78.2783 18.192C76.9183 18.192 75.6943 17.912 74.6063 17.352C73.5343 16.776 72.6943 15.984 72.0863 14.976C71.4783 13.968 71.1743 12.824 71.1743 11.544C71.1743 10.264 71.4783 9.12 72.0863 8.112C72.6943 7.104 73.5343 6.32 74.6063 5.76C75.6943 5.184 76.9183 4.896 78.2783 4.896C79.6383 4.896 80.8543 5.184 81.9263 5.76C82.9983 6.32 83.8383 7.104 84.4463 8.112C85.0543 9.12 85.3583 10.264 85.3583 11.544C85.3583 12.824 85.0543 13.968 84.4463 14.976C83.8383 15.984 82.9983 16.776 81.9263 17.352C80.8543 17.912 79.6383 18.192 78.2783 18.192ZM78.2783 15.12C79.2383 15.12 80.0223 14.8 80.6303 14.16C81.2543 13.504 81.5663 12.632 81.5663 11.544C81.5663 10.456 81.2543 9.592 80.6303 8.952C80.0223 8.296 79.2383 7.968 78.2783 7.968C77.3183 7.968 76.5263 8.296 75.9023 8.952C75.2783 9.592 74.9663 10.456 74.9663 11.544C74.9663 12.632 75.2783 13.504 75.9023 14.16C76.5263 14.8 77.3183 15.12 78.2783 15.12ZM95.4928 4.896C96.6928 4.896 97.7808 5.176 98.7568 5.736C99.7488 6.28 100.525 7.056 101.085 8.064C101.645 9.056 101.925 10.216 101.925 11.544C101.925 12.872 101.645 14.04 101.085 15.048C100.525 16.04 99.7488 16.816 98.7568 17.376C97.7808 17.92 96.6928 18.192 95.4928 18.192C93.8448 18.192 92.5488 17.672 91.6048 16.632V22.656H87.8608V5.088H91.4368V6.576C92.3648 5.456 93.7168 4.896 95.4928 4.896ZM94.8448 15.12C95.8048 15.12 96.5888 14.8 97.1968 14.16C97.8208 13.504 98.1328 12.632 98.1328 11.544C98.1328 10.456 97.8208 9.592 97.1968 8.952C96.5888 8.296 95.8048 7.968 94.8448 7.968C93.8848 7.968 93.0928 8.296 92.4688 8.952C91.8608 9.592 91.5568 10.456 91.5568 11.544C91.5568 12.632 91.8608 13.504 92.4688 14.16C93.0928 14.8 93.8848 15.12 94.8448 15.12ZM108.007 6.792C108.455 6.168 109.055 5.696 109.807 5.376C110.575 5.056 111.455 4.896 112.447 4.896V8.352C112.031 8.32 111.751 8.304 111.607 8.304C110.535 8.304 109.695 8.608 109.087 9.216C108.479 9.808 108.175 10.704 108.175 11.904V18H104.431V5.088H108.007V6.792ZM120.7 18.192C119.34 18.192 118.116 17.912 117.028 17.352C115.956 16.776 115.116 15.984 114.508 14.976C113.9 13.968 113.596 12.824 113.596 11.544C113.596 10.264 113.9 9.12 114.508 8.112C115.116 7.104 115.956 6.32 117.028 5.76C118.116 5.184 119.34 4.896 120.7 4.896C122.06 4.896 123.276 5.184 124.348 5.76C125.42 6.32 126.26 7.104 126.868 8.112C127.476 9.12 127.78 10.264 127.78 11.544C127.78 12.824 127.476 13.968 126.868 14.976C126.26 15.984 125.42 16.776 124.348 17.352C123.276 17.912 122.06 18.192 120.7 18.192ZM120.7 15.12C121.66 15.12 122.444 14.8 123.052 14.16C123.676 13.504 123.988 12.632 123.988 11.544C123.988 10.456 123.676 9.592 123.052 8.952C122.444 8.296 121.66 7.968 120.7 7.968C119.74 7.968 118.948 8.296 118.324 8.952C117.7 9.592 117.388 10.456 117.388 11.544C117.388 12.632 117.7 13.504 118.324 14.16C118.948 14.8 119.74 15.12 120.7 15.12ZM142.747 5.088L137.299 18H133.435L128.011 5.088H131.875L135.451 13.872L139.147 5.088H142.747ZM156.571 11.592C156.571 11.64 156.547 11.976 156.499 12.6H146.731C146.907 13.4 147.323 14.032 147.979 14.496C148.635 14.96 149.451 15.192 150.427 15.192C151.099 15.192 151.691 15.096 152.203 14.904C152.731 14.696 153.219 14.376 153.667 13.944L155.659 16.104C154.443 17.496 152.667 18.192 150.331 18.192C148.875 18.192 147.587 17.912 146.467 17.352C145.347 16.776 144.483 15.984 143.875 14.976C143.267 13.968 142.963 12.824 142.963 11.544C142.963 10.28 143.259 9.144 143.851 8.136C144.459 7.112 145.283 6.32 146.323 5.76C147.379 5.184 148.555 4.896 149.851 4.896C151.115 4.896 152.259 5.168 153.283 5.712C154.307 6.256 155.107 7.04 155.683 8.064C156.275 9.072 156.571 10.248 156.571 11.592ZM149.875 7.728C149.027 7.728 148.315 7.968 147.739 8.448C147.163 8.928 146.811 9.584 146.683 10.416H153.043C152.915 9.6 152.563 8.952 151.987 8.472C151.411 7.976 150.707 7.728 149.875 7.728ZM162.64 6.792C163.088 6.168 163.688 5.696 164.44 5.376C165.208 5.056 166.088 4.896 167.08 4.896V8.352C166.664 8.32 166.384 8.304 166.24 8.304C165.168 8.304 164.328 8.608 163.72 9.216C163.112 9.808 162.808 10.704 162.808 11.904V18H159.064V5.088H162.64V6.792ZM174.85 12.936L173.05 14.712V18H169.306V0.191999H173.05V10.272L178.522 5.088H182.986L177.61 10.56L183.466 18H178.93L174.85 12.936ZM190.004 4.896C192.004 4.896 193.54 5.376 194.612 6.336C195.684 7.28 196.22 8.712 196.22 10.632V18H192.716V16.392C192.012 17.592 190.7 18.192 188.78 18.192C187.788 18.192 186.924 18.024 186.188 17.688C185.468 17.352 184.916 16.888 184.532 16.296C184.148 15.704 183.956 15.032 183.956 14.28C183.956 13.08 184.404 12.136 185.3 11.448C186.212 10.76 187.612 10.416 189.5 10.416H192.476C192.476 9.6 192.228 8.976 191.732 8.544C191.236 8.096 190.492 7.872 189.5 7.872C188.812 7.872 188.132 7.984 187.46 8.208C186.804 8.416 186.244 8.704 185.78 9.072L184.436 6.456C185.14 5.96 185.98 5.576 186.956 5.304C187.948 5.032 188.964 4.896 190.004 4.896ZM189.716 15.672C190.356 15.672 190.924 15.528 191.42 15.24C191.916 14.936 192.268 14.496 192.476 13.92V12.6H189.908C188.372 12.6 187.604 13.104 187.604 14.112C187.604 14.592 187.788 14.976 188.156 15.264C188.54 15.536 189.06 15.672 189.716 15.672Z" fill="white"/>
</svg>
